<svg xmlns="http://www.w3.org/2000/svg" width="64" height="64" viewBox="0 0 64 64" fill="none" role="img" aria-label="Імпорт">

<defs>
  <linearGradient id="edge" x1="12" y1="8" x2="52" y2="56" gradientUnits="userSpaceOnUse">
    <stop stop-color="#FFFFFF" stop-opacity=".96"/>
    <stop offset=".42" stop-color="#BFD9FF" stop-opacity=".76"/>
    <stop offset="1" stop-color="#FFFFFF" stop-opacity=".28"/>
  </linearGradient>
  <linearGradient id="glass" x1="14" y1="10" x2="50" y2="58" gradientUnits="userSpaceOnUse">
    <stop stop-color="#FFFFFF" stop-opacity=".40"/>
    <stop offset=".48" stop-color="#9FC6FF" stop-opacity=".13"/>
    <stop offset="1" stop-color="#FFFFFF" stop-opacity=".04"/>
  </linearGradient>
  <linearGradient id="shine" x1="16" y1="6" x2="48" y2="32" gradientUnits="userSpaceOnUse">
    <stop stop-color="#FFFFFF" stop-opacity=".75"/>
    <stop offset="1" stop-color="#FFFFFF" stop-opacity="0"/>
  </linearGradient>
  <filter id="softGlow" x="-35%" y="-35%" width="170%" height="170%">
    <feDropShadow dx="0" dy="0" stdDeviation="1.8" flood-color="#DCEEFF" flood-opacity=".55"/>
    <feDropShadow dx="0" dy="2" stdDeviation="3.2" flood-color="#06111E" flood-opacity=".45"/>
  </filter>
  <filter id="tinyGlow" x="-40%" y="-40%" width="180%" height="180%">
    <feDropShadow dx="0" dy="0" stdDeviation="1.1" flood-color="#FFFFFF" flood-opacity=".52"/>
  </filter>
</defs>

<g filter="url(#softGlow)" stroke="url(#edge)" stroke-width="2.35" stroke-linecap="round" stroke-linejoin="round">

  <path d="M32 12v25"/>
  <path d="M23 28.5 32 37l9-8.5"/>
  <path d="M15 38.5v4.8c0 4 3.2 7.2 7.2 7.2h19.6c4 0 7.2-3.2 7.2-7.2v-4.8"/>
  <path d="M18.5 39h9.2l2.3 4h4l2.3-4h9.2" fill="url(#glass)"/>
  <path d="M20 49.5h24" opacity=".45"/>
  <path d="M24 15.2c4.8-1.3 10.5-1.1 16 .2" stroke="url(#shine)" opacity=".67"/>

</g>
</svg>