<svg width="64" height="64" viewBox="0 0 64 64" fill="none" xmlns="http://www.w3.org/2000/svg" role="img">

  <defs>
    <linearGradient id="edge" x1="10" y1="6" x2="56" y2="58" gradientUnits="userSpaceOnUse">
      <stop offset="0" stop-color="#ffffff" stop-opacity="1"/>
      <stop offset="1" stop-color="#cfd4df" stop-opacity="0.84"/>
    </linearGradient>
    <linearGradient id="gold" x1="12" y1="12" x2="52" y2="52" gradientUnits="userSpaceOnUse">
      <stop offset="0" stop-color="#fff2b8"/>
      <stop offset="0.55" stop-color="#d7ad45"/>
      <stop offset="1" stop-color="#a77720"/>
    </linearGradient>
    <filter id="soft" x="-20%" y="-20%" width="140%" height="140%">
      <feDropShadow dx="0" dy="1" stdDeviation="0.55" flood-color="#000000" flood-opacity="0.28"/>
    </filter>
  </defs>

  <g filter="url(#soft)" stroke-linecap="round" stroke-linejoin="round">

    <path d="M32 10.5L48.5 18V30.5C48.5 41.5 41.5 49.2 32 53.5C22.5 49.2 15.5 41.5 15.5 30.5V18L32 10.5Z" stroke="url(#edge)" stroke-width="2.35"/>
    <path d="M32 15.5V48" stroke="url(#edge)" stroke-width="1.7" opacity="0.38"/>
    <path d="M21 31C24.5 28.2 28 26.8 32 26.8C36 26.8 39.5 28.2 43 31" stroke="url(#edge)" stroke-width="1.8" opacity="0.55"/>
    <circle cx="43" cy="41" r="8" fill="#16181d" stroke="url(#edge)" stroke-width="2"/>
    <path d="M39.5 40.8L42 43.3L47.1 37.9" stroke="url(#gold)" stroke-width="2.6"/>

  </g>
</svg>
