<svg xmlns="http://www.w3.org/2000/svg" width="64" height="64" viewBox="0 0 64 64" fill="none" role="img" aria-label="Продажі">

<defs>
  <linearGradient id="edge" x1="12" y1="8" x2="52" y2="56" gradientUnits="userSpaceOnUse">
    <stop stop-color="#FFFFFF" stop-opacity=".96"/>
    <stop offset=".42" stop-color="#BFD9FF" stop-opacity=".76"/>
    <stop offset="1" stop-color="#FFFFFF" stop-opacity=".28"/>
  </linearGradient>
  <linearGradient id="glass" x1="14" y1="10" x2="50" y2="58" gradientUnits="userSpaceOnUse">
    <stop stop-color="#FFFFFF" stop-opacity=".40"/>
    <stop offset=".48" stop-color="#9FC6FF" stop-opacity=".13"/>
    <stop offset="1" stop-color="#FFFFFF" stop-opacity=".04"/>
  </linearGradient>
  <linearGradient id="shine" x1="16" y1="6" x2="48" y2="32" gradientUnits="userSpaceOnUse">
    <stop stop-color="#FFFFFF" stop-opacity=".75"/>
    <stop offset="1" stop-color="#FFFFFF" stop-opacity="0"/>
  </linearGradient>
  <filter id="softGlow" x="-35%" y="-35%" width="170%" height="170%">
    <feDropShadow dx="0" dy="0" stdDeviation="1.8" flood-color="#DCEEFF" flood-opacity=".55"/>
    <feDropShadow dx="0" dy="2" stdDeviation="3.2" flood-color="#06111E" flood-opacity=".45"/>
  </filter>
  <filter id="tinyGlow" x="-40%" y="-40%" width="180%" height="180%">
    <feDropShadow dx="0" dy="0" stdDeviation="1.1" flood-color="#FFFFFF" flood-opacity=".52"/>
  </filter>
</defs>

<g filter="url(#softGlow)" stroke="url(#edge)" stroke-width="2.35" stroke-linecap="round" stroke-linejoin="round">

  <path d="M22 24.5h23.5c3.2 0 5.1 3.6 3.2 6.1L38.4 44.3a6.2 6.2 0 0 1-8.8 1.1L17.8 35.2a6 6 0 0 1-1.8-4.3v-9.4c0-2.8 2.2-5 5-5h5.5" fill="url(#glass)"/>
  <circle cx="25" cy="25.5" r="3.1" fill="url(#glass)"/>
  <path d="M34 21.5c-2.4 0-4.4 1.5-4.4 3.6 0 4.9 9.5 2.3 9.5 7.5 0 2.2-1.9 3.8-4.6 3.8-2.3 0-4.1-.9-5.4-2.1"/>
  <path d="M34.2 18.2v21.2" opacity=".72"/>
  <path d="M19 18c8-1.5 18.6-1 27 1" stroke="url(#shine)" opacity=".62"/>

</g>
</svg>