<svg width="64" height="64" viewBox="0 0 64 64" fill="none" xmlns="http://www.w3.org/2000/svg" role="img">

  <defs>
    <linearGradient id="edge" x1="10" y1="6" x2="56" y2="58" gradientUnits="userSpaceOnUse">
      <stop offset="0" stop-color="#ffffff" stop-opacity="1"/>
      <stop offset="1" stop-color="#cfd4df" stop-opacity="0.84"/>
    </linearGradient>
    <linearGradient id="gold" x1="12" y1="12" x2="52" y2="52" gradientUnits="userSpaceOnUse">
      <stop offset="0" stop-color="#fff2b8"/>
      <stop offset="0.55" stop-color="#d7ad45"/>
      <stop offset="1" stop-color="#a77720"/>
    </linearGradient>
    <filter id="soft" x="-20%" y="-20%" width="140%" height="140%">
      <feDropShadow dx="0" dy="1" stdDeviation="0.55" flood-color="#000000" flood-opacity="0.28"/>
    </filter>
  </defs>

  <g filter="url(#soft)" stroke-linecap="round" stroke-linejoin="round">

    <path d="M32 13.5L36 16L40.4 15.2L43.4 19.7L42 24L44.5 28L49 30V35L44.5 37L42 41L43.4 45.3L40.4 49.8L36 49L32 51.5L28 49L23.6 49.8L20.6 45.3L22 41L19.5 37L15 35V30L19.5 28L22 24L20.6 19.7L23.6 15.2L28 16L32 13.5Z" stroke="url(#edge)" stroke-width="2.15"/>
    <circle cx="32" cy="32.5" r="8.2" stroke="url(#edge)" stroke-width="2.15"/>
    <circle cx="32" cy="32.5" r="3.2" stroke="url(#gold)" stroke-width="2"/>
    <path d="M47.5 32.5H55" stroke="url(#edge)" stroke-width="2.1"/>
    <path d="M52 29.5H57" stroke="url(#gold)" stroke-width="2.1" opacity="0.78"/>

  </g>
</svg>
