<svg xmlns="http://www.w3.org/2000/svg" width="64" height="64" viewBox="0 0 64 64" fill="none" role="img" aria-label="Налаштування">

<defs>
  <linearGradient id="edge" x1="12" y1="8" x2="52" y2="56" gradientUnits="userSpaceOnUse">
    <stop stop-color="#FFFFFF" stop-opacity=".96"/>
    <stop offset=".42" stop-color="#BFD9FF" stop-opacity=".76"/>
    <stop offset="1" stop-color="#FFFFFF" stop-opacity=".28"/>
  </linearGradient>
  <linearGradient id="glass" x1="14" y1="10" x2="50" y2="58" gradientUnits="userSpaceOnUse">
    <stop stop-color="#FFFFFF" stop-opacity=".40"/>
    <stop offset=".48" stop-color="#9FC6FF" stop-opacity=".13"/>
    <stop offset="1" stop-color="#FFFFFF" stop-opacity=".04"/>
  </linearGradient>
  <linearGradient id="shine" x1="16" y1="6" x2="48" y2="32" gradientUnits="userSpaceOnUse">
    <stop stop-color="#FFFFFF" stop-opacity=".75"/>
    <stop offset="1" stop-color="#FFFFFF" stop-opacity="0"/>
  </linearGradient>
  <filter id="softGlow" x="-35%" y="-35%" width="170%" height="170%">
    <feDropShadow dx="0" dy="0" stdDeviation="1.8" flood-color="#DCEEFF" flood-opacity=".55"/>
    <feDropShadow dx="0" dy="2" stdDeviation="3.2" flood-color="#06111E" flood-opacity=".45"/>
  </filter>
  <filter id="tinyGlow" x="-40%" y="-40%" width="180%" height="180%">
    <feDropShadow dx="0" dy="0" stdDeviation="1.1" flood-color="#FFFFFF" flood-opacity=".52"/>
  </filter>
</defs>

<g filter="url(#softGlow)" stroke="url(#edge)" stroke-width="2.35" stroke-linecap="round" stroke-linejoin="round">

  <path d="M35.8 11.8 37.6 18a15 15 0 0 1 4 1.7l5.8-3.1 4.7 8.2-5.1 4.1c.2 1.1.3 2.1.3 3.2s-.1 2.1-.3 3.2l5.1 4.1-4.7 8.2-5.8-3.1c-1.2.7-2.6 1.2-4 1.7l-1.8 6.2h-9.6L24.4 46a15 15 0 0 1-4-1.7l-5.8 3.1-4.7-8.2 5.1-4.1a18 18 0 0 1 0-6.4l-5.1-4.1 4.7-8.2 5.8 3.1c1.2-.7 2.6-1.2 4-1.7l1.8-6.2h9.6Z" fill="url(#glass)"/>
  <circle cx="31" cy="32" r="8.3" fill="url(#glass)"/>
  <circle cx="31" cy="32" r="3.2" opacity=".55"/>
  <path d="M19 20.5c8.4-4 17.2-4 26.1.2" stroke="url(#shine)" opacity=".56"/>

</g>
</svg>