<svg width="64" height="64" viewBox="0 0 64 64" fill="none" xmlns="http://www.w3.org/2000/svg" role="img">

  <defs>
    <linearGradient id="edge" x1="10" y1="6" x2="56" y2="58" gradientUnits="userSpaceOnUse">
      <stop offset="0" stop-color="#ffffff" stop-opacity="1"/>
      <stop offset="1" stop-color="#cfd4df" stop-opacity="0.84"/>
    </linearGradient>
    <linearGradient id="gold" x1="12" y1="12" x2="52" y2="52" gradientUnits="userSpaceOnUse">
      <stop offset="0" stop-color="#fff2b8"/>
      <stop offset="0.55" stop-color="#d7ad45"/>
      <stop offset="1" stop-color="#a77720"/>
    </linearGradient>
    <filter id="soft" x="-20%" y="-20%" width="140%" height="140%">
      <feDropShadow dx="0" dy="1" stdDeviation="0.55" flood-color="#000000" flood-opacity="0.28"/>
    </filter>
  </defs>

  <g filter="url(#soft)" stroke-linecap="round" stroke-linejoin="round">

    <circle cx="25" cy="23" r="7" stroke="url(#edge)" stroke-width="2.25"/>
    <path d="M11.5 49C13.4 39.5 18.8 34.5 25 34.5C31.2 34.5 36.6 39.5 38.5 49" stroke="url(#edge)" stroke-width="2.25"/>
    <circle cx="42" cy="26" r="6" stroke="url(#edge)" stroke-width="2.05" opacity="0.82"/>
    <path d="M38 36.5C44.5 36.8 49.5 41.5 51.5 49" stroke="url(#edge)" stroke-width="2.05" opacity="0.82"/>
    <path d="M49.5 16.5L51.1 20.2L54.8 21.8L51.1 23.4L49.5 27.1L47.9 23.4L44.2 21.8L47.9 20.2L49.5 16.5Z" fill="url(#gold)"/>

  </g>
</svg>
